<svg width="31" height="31" fill="none" xmlns="http://www.w3.org/2000/svg"><mask id="a" style="mask-type:luminance" maskUnits="userSpaceOnUse" x="3" y="7" width="25" height="18"><path d="M3.45 8.52a1 1 0 0 1 1-1h21a2 2 0 0 1 2 2v13a2 2 0 0 1-2 2h-21a1 1 0 0 1-1-1v-15Z" fill="#fff"/></mask><g mask="url(#a)"><path d="M3.45 8.52a1 1 0 0 1 1-1h21a2 2 0 0 1 2 2v13a2 2 0 0 1-2 2h-21a1 1 0 0 1-1-1v-15Z" stroke="#8E0732" stroke-width="4"/></g><mask id="b" style="mask-type:alpha" maskUnits="userSpaceOnUse" x="10" y="8" width="16" height="16"><path d="M14.45 8.52h11v15h-15l4-15Z" fill="#C4C4C4"/></mask><g mask="url(#b)" stroke="#8E0732" stroke-width="2"><path d="M21.45 8.52v15m-5-15v15m-5-15v15m-7-5h22m-22-5h22"/></g><path d="m10.45 23.52 4-15" stroke="#8E0732" stroke-width="2"/></svg>