<svg width="31" height="31" fill="none" xmlns="http://www.w3.org/2000/svg"><mask id="a" style="mask-type:alpha" maskUnits="userSpaceOnUse" x="0" y="6" width="23" height="19"><path d="M.27 6.52h22l-7 9 7 9h-22v-18Z" fill="#C4C4C4"/></mask><g mask="url(#a)"><path d="M21.27 9.234c-.5-1.143-1.567-1.714-2.722-1.714-2.363 0-4.278 3.287-4.278 8s1.915 8 4.278 8c.628 0 2.222-.572 2.722-1.715" stroke="#8E0732" stroke-width="2"/></g><path d="M22.27 7.52h-9.897c-4.146 0-7.049 3.61-7.049 8 0 4.64 3.284 8 7.049 8h9.897M5.344 14.377s-1.166-1.385-1.878-1.714c-1.612-.745-1.577 6.564 0 5.714.77-.415 1.858-1.714 1.858-1.714" stroke="#8E0732" stroke-width="2" stroke-linecap="round"/><path d="M27.27 15.52c0 4.418-1.5 8-4.5 8s-4.5-3.582-4.5-8 1.5-8 4.5-8 4.5 3.582 4.5 8Z" stroke="#8E0732" stroke-width="2"/></svg>