<svg width="31" height="34" fill="none" xmlns="http://www.w3.org/2000/svg"><g clip-path="url(#a)"><path d="M8.11 15.02a4.75 4.75 0 0 0-4.75 4.75 7.25 7.25 0 0 0 7.25 7.25h9.5a7.25 7.25 0 0 0 7.25-7.25 4.75 4.75 0 0 0-4.75-4.75H8.11Z" stroke="#8E0732" stroke-width="2" stroke-linejoin="round"/><path d="M10.36 19.02h10a4 4 0 0 1-4 4h-2a4 4 0 0 1-4-4Z" stroke="#8E0732" stroke-width="2"/><path d="M1.36 19.02h28" stroke="#8E0732" stroke-width="2" stroke-linecap="round"/><path fill-rule="evenodd" clip-rule="evenodd" d="M11.308 2.313a1 1 0 0 0-1.415 0l.707.707-.707-.707-.001.001-.002.002-.006.006-.016.017a4.122 4.122 0 0 0-.22.243 6.924 6.924 0 0 0-.5.658c-.343.515-.788 1.339-.788 2.26 0 .55.209 1.036.419 1.41.206.367.47.724.69 1.02l.018.024c.241.326.433.587.57.832.14.248.163.378.163.432 0 .32-.175.735-.452 1.15a4.925 4.925 0 0 1-.465.592l-.027.028-.004.004a1 1 0 0 0 1.415 1.413l-.696-.697.696.697h.001l.001-.002.002-.002.006-.005.016-.017a4.899 4.899 0 0 0 .22-.243c.136-.159.317-.384.5-.658.343-.515.787-1.339.787-2.26 0-.55-.208-1.036-.418-1.41a9.965 9.965 0 0 0-.69-1.021l-.018-.024c-.242-.325-.433-.586-.57-.831-.14-.248-.164-.379-.164-.433 0-.319.176-.734.452-1.15a4.932 4.932 0 0 1 .493-.62l.004-.004a1 1 0 0 0-.001-1.412Zm3.585 0a1 1 0 0 1 1.416 1.412l-.004.004a4.932 4.932 0 0 0-.493.62c-.276.415-.452.831-.452 1.15 0 .054.024.185.163.433.138.245.33.506.57.831l.018.024c.22.297.485.654.69 1.02.21.375.42.86.42 1.411 0 .921-.445 1.745-.789 2.26a6.922 6.922 0 0 1-.72.901l-.015.017-.006.005-.002.002v.001c-.001 0-.002.001-.698-.696l.696.697a1 1 0 0 1-1.416-1.412l.001-.001.004-.004.027-.028a4.93 4.93 0 0 0 .466-.591c.276-.416.451-.831.451-1.15 0-.055-.024-.185-.162-.433-.138-.245-.33-.506-.57-.832l-.018-.023c-.22-.297-.485-.654-.691-1.021-.21-.374-.419-.86-.419-1.41 0-.921.445-1.745.788-2.26a6.918 6.918 0 0 1 .72-.901l.016-.017.006-.006.002-.002.001-.001.707.707-.707-.707Zm5 0a1 1 0 0 1 1.416 1.412l-.004.004a4.932 4.932 0 0 0-.493.62c-.276.415-.452.831-.452 1.15 0 .054.024.185.163.433.138.245.33.506.57.831l.018.024c.22.297.485.654.69 1.02.21.375.42.86.42 1.411 0 .921-.445 1.745-.789 2.26a6.922 6.922 0 0 1-.72.901l-.015.017-.006.005-.002.002v.001c-.001 0-.002.001-.698-.696l.696.697a1 1 0 0 1-1.416-1.412l.001-.001.004-.004.027-.028a4.93 4.93 0 0 0 .466-.591c.276-.416.451-.831.451-1.15 0-.055-.023-.185-.162-.433-.138-.245-.33-.506-.57-.832l-.018-.023c-.22-.297-.485-.654-.691-1.021-.21-.374-.419-.86-.419-1.41 0-.921.445-1.745.788-2.26a6.918 6.918 0 0 1 .72-.901l.016-.017.006-.006.002-.002.001-.001.707.707-.707-.707Z" fill="#8E0732"/></g><defs><clipPath id="a"><path fill="#fff" transform="translate(.36 .02)" d="M0 0h30v33H0z"/></clipPath></defs></svg>