<svg width="111" height="32" fill="none" xmlns="http://www.w3.org/2000/svg"><rect x=".825" width="110.175" height="31.64" rx="5.65" fill="#000"/><path d="M38.383 10.912c-.512 0-.978-.118-1.4-.356a2.653 2.653 0 0 1-1.353-2.341 2.644 2.644 0 0 1 1.36-2.341 2.79 2.79 0 0 1 1.393-.356c.453 0 .865.095 1.234.284.369.19.677.46.925.807l-.609.498c-.39-.548-.91-.822-1.558-.822a1.87 1.87 0 0 0-.973.253 1.704 1.704 0 0 0-.664.688c-.159.29-.238.617-.238.981 0 .37.082.704.245 1.005.164.295.39.527.68.696.29.168.623.253.997.253.343 0 .646-.069.91-.206.269-.142.485-.337.649-.585v-.562h-1.606v-.743h2.444v1.47a2.64 2.64 0 0 1-.997 1.005 2.843 2.843 0 0 1-1.44.372Zm3.465-5.307h3.433v.751h-2.594v1.337h1.953v.728h-1.953v1.653h2.689v.751h-3.528v-5.22Zm5.73.751h-1.756v-.751h4.358v.751h-1.764v4.47h-.838v-4.47Zm5.208-.751h.839v5.22h-.839v-5.22Zm3.381.751h-1.756v-.751h4.359v.751h-1.764v4.47h-.839v-4.47Zm7.63 4.556c-.502 0-.963-.118-1.385-.356a2.653 2.653 0 0 1-1.352-2.341c0-.501.12-.957.363-1.369a2.732 2.732 0 0 1 2.373-1.329c.496 0 .955.12 1.377.357.422.237.754.561.996.972a2.6 2.6 0 0 1 .372 1.369 2.6 2.6 0 0 1-.372 1.368 2.635 2.635 0 0 1-.996.973 2.76 2.76 0 0 1-1.377.356Zm.007-.767c.354 0 .673-.082.957-.245.285-.169.51-.401.673-.696.163-.296.245-.628.245-.997a1.99 1.99 0 0 0-.245-.98 1.842 1.842 0 0 0-1.63-.941 1.846 1.846 0 0 0-.965.252 1.759 1.759 0 0 0-.672.688c-.158.29-.237.617-.237.981 0 .37.079.701.237.997.163.295.388.527.672.696.285.163.607.245.965.245Zm8.047-4.54v5.307h-.285l-3.18-3.623v3.536h-.838V5.518h.293l3.172 3.607v-3.52h.838ZM40.248 24.76a5.012 5.012 0 0 1-2.5-.635 4.737 4.737 0 0 1-1.766-1.737 4.721 4.721 0 0 1-.65-2.444 4.722 4.722 0 0 1 2.43-4.181 4.983 4.983 0 0 1 2.486-.636c.81 0 1.544.17 2.204.509.659.339 1.21.82 1.652 1.44l-1.087.89c-.697-.979-1.625-1.469-2.783-1.469-.65 0-1.229.151-1.738.453a3.044 3.044 0 0 0-1.186 1.228 3.604 3.604 0 0 0-.424 1.752c0 .659.146 1.257.438 1.794a3.21 3.21 0 0 0 1.215 1.243c.518.301 1.111.452 1.78.452.612 0 1.153-.123 1.624-.367a3.1 3.1 0 0 0 1.158-1.046v-1.003h-2.867v-1.327h4.364v2.627a4.716 4.716 0 0 1-1.78 1.794c-.771.442-1.628.664-2.57.664Zm8.462 0a3.69 3.69 0 0 1-1.85-.48 3.736 3.736 0 0 1-1.328-1.327 3.586 3.586 0 0 1-.48-1.822c0-.67.16-1.276.48-1.823a3.626 3.626 0 0 1 3.178-1.793c.678 0 1.3.16 1.865.48.565.32 1.007.758 1.327 1.313.33.556.495 1.163.495 1.823 0 .659-.165 1.266-.495 1.822-.32.555-.762.998-1.327 1.327a3.72 3.72 0 0 1-1.865.48Zm0-1.37a2.126 2.126 0 0 0 1.879-1.102c.188-.348.282-.73.282-1.143 0-.424-.094-.81-.282-1.159a2.099 2.099 0 0 0-1.865-1.116 2.1 2.1 0 0 0-1.878 1.116 2.396 2.396 0 0 0-.283 1.159c0 .423.094.81.283 1.158.188.339.442.607.762.805.33.188.697.282 1.102.282Zm7.76 1.37c-.669 0-1.285-.16-1.85-.48a3.736 3.736 0 0 1-1.328-1.327 3.585 3.585 0 0 1-.48-1.822c0-.67.16-1.276.48-1.823a3.626 3.626 0 0 1 3.178-1.793c.678 0 1.3.16 1.865.48.565.32 1.007.758 1.327 1.313.33.556.495 1.163.495 1.823 0 .659-.165 1.266-.495 1.822-.32.555-.762.998-1.327 1.327a3.72 3.72 0 0 1-1.865.48Zm0-1.37a2.126 2.126 0 0 0 1.879-1.102c.188-.348.282-.73.282-1.143 0-.424-.094-.81-.282-1.159a2.099 2.099 0 0 0-1.865-1.116 2.1 2.1 0 0 0-1.878 1.116 2.397 2.397 0 0 0-.283 1.159c0 .423.094.81.283 1.158.188.339.442.607.762.805.33.188.697.282 1.102.282Zm11.348-5.72v6.215c0 1.092-.316 1.935-.947 2.528-.63.593-1.473.89-2.528.89a4.675 4.675 0 0 1-1.879-.367 5.173 5.173 0 0 1-1.454-.947l.819-1.03c.386.31.767.55 1.144.72a3.02 3.02 0 0 0 1.285.268c.631 0 1.135-.17 1.512-.508.376-.33.565-.82.565-1.47v-.494c-.264.32-.603.565-1.017.735-.405.17-.848.254-1.328.254-.64 0-1.22-.146-1.738-.438a3.241 3.241 0 0 1-1.2-1.243c-.292-.527-.438-1.125-.438-1.794 0-.668.146-1.266.438-1.794a3.112 3.112 0 0 1 1.215-1.229 3.364 3.364 0 0 1 1.723-.451c.527 0 1.003.103 1.426.31a2.52 2.52 0 0 1 1.032.834v-.99h1.37Zm-3.56 5.494a2.08 2.08 0 0 0 1.47-.565c.414-.376.62-.918.62-1.624 0-.706-.206-1.238-.62-1.596-.406-.358-.895-.537-1.47-.537-.602 0-1.106.198-1.511.594-.405.395-.608.913-.608 1.553 0 .65.203 1.177.608 1.582.405.396.909.593 1.511.593Zm4.856-9.153h1.483v10.594h-1.483V14.011Zm9.024 7.614h-5.17c.094.565.344 1.012.749 1.342.414.32.918.48 1.511.48.725 0 1.398-.273 2.02-.82l.706 1.018c-.79.744-1.714 1.116-2.768 1.116-.707 0-1.342-.156-1.907-.466a3.628 3.628 0 0 1-1.342-1.3 3.639 3.639 0 0 1-.48-1.85c0-.669.155-1.281.466-1.837.32-.555.753-.993 1.3-1.313a3.586 3.586 0 0 1 1.822-.48c.612 0 1.158.14 1.638.423.49.273.871.65 1.144 1.13a3.14 3.14 0 0 1 .424 1.625c0 .291-.038.602-.113.932Zm-3.15-2.853c-.49 0-.918.155-1.285.466-.358.301-.594.71-.707 1.229h3.772c-.01-.528-.189-.942-.537-1.243-.339-.302-.753-.452-1.243-.452Zm11.026-1.257c.65 0 1.233.16 1.751.48.518.31.923.744 1.215 1.3.292.545.438 1.157.438 1.835 0 .688-.146 1.31-.438 1.865-.292.546-.697.98-1.215 1.3a3.339 3.339 0 0 1-1.751.466 3.36 3.36 0 0 1-1.314-.255 2.834 2.834 0 0 1-1.003-.748v3.39h-1.483V17.67h1.384v.974a2.533 2.533 0 0 1 1.017-.833c.424-.198.89-.296 1.399-.296Zm-.24 5.89a2.08 2.08 0 0 0 1.073-.283c.32-.198.575-.466.763-.805.188-.339.282-.73.282-1.172 0-.443-.094-.834-.282-1.173a1.909 1.909 0 0 0-.763-.805 2.001 2.001 0 0 0-1.073-.297c-.368 0-.711.085-1.031.255-.311.16-.566.41-.763.748-.198.34-.297.758-.297 1.258 0 .499.099.922.297 1.27.197.34.452.594.763.764.32.16.663.24 1.03.24Zm4.504-9.394h1.483v10.594h-1.483V14.011Zm5.45 3.504c.856 0 1.544.249 2.062.748.518.5.777 1.215.777 2.147v4.195h-1.385v-.777c-.254.302-.57.532-.946.692-.377.16-.8.24-1.271.24-.725 0-1.31-.183-1.752-.55-.442-.367-.664-.852-.664-1.455 0-.603.231-1.083.692-1.44.462-.359 1.083-.538 1.865-.538h1.963v-.452c0-.48-.132-.847-.395-1.101-.254-.255-.617-.382-1.088-.382-.386 0-.73.085-1.03.255-.302.169-.599.428-.89.776l-.862-.875c.348-.5.772-.871 1.27-1.116.5-.245 1.05-.367 1.653-.367Zm-.453 6.101c.5 0 .923-.155 1.272-.466.348-.31.522-.701.522-1.172v-.127h-1.78c-.395 0-.701.07-.918.212-.207.141-.31.353-.31.635 0 .292.113.518.339.678.226.16.518.24.875.24Zm10.921-5.946-3.376 7.726c-.292.66-.64 1.14-1.045 1.441-.405.31-.904.466-1.497.466a4.7 4.7 0 0 1-1.145-.141v-1.257c.434.037.707.056.82.056.348 0 .645-.075.89-.226.244-.141.452-.405.621-.79l.283-.65-2.769-6.625h1.596l1.992 5.042 2.048-5.042h1.582Z" fill="#fff"/><path fill-rule="evenodd" clip-rule="evenodd" d="M10.245 5.414c-.241.26-.38.659-.38 1.178v18.453c0 .519.139.918.39 1.168l.065.056 10.34-10.34v-.232L10.31 5.359l-.065.055Z" fill="url(#a)"/><path fill-rule="evenodd" clip-rule="evenodd" d="m24.1 19.389-3.45-3.45v-.242l3.45-3.45.075.047 4.08 2.319c1.169.658 1.169 1.743 0 2.41l-4.08 2.32a4.56 4.56 0 0 0-.076.046Z" fill="url(#b)"/><path fill-rule="evenodd" clip-rule="evenodd" d="m24.174 19.343-3.524-3.525-10.405 10.406c.38.408 1.02.454 1.735.055l12.194-6.936Z" fill="url(#c)"/><path fill-rule="evenodd" clip-rule="evenodd" d="M24.174 12.295 11.98 5.368c-.714-.408-1.355-.353-1.735.055L20.65 15.818l3.525-3.523Z" fill="url(#d)"/><path opacity=".2" fill-rule="evenodd" clip-rule="evenodd" d="M24.1 19.268 11.988 26.15c-.677.39-1.28.362-1.67.01l-.065.065.066.055c.389.352.992.38 1.669-.01l12.194-6.926-.084-.075Z" fill="#000"/><path opacity=".12" fill-rule="evenodd" clip-rule="evenodd" d="m28.254 16.903-4.164 2.365.075.075 4.08-2.319c.584-.334.872-.77.872-1.206-.038.4-.334.78-.863 1.085Z" fill="#000"/><path opacity=".25" fill-rule="evenodd" clip-rule="evenodd" d="m11.98 5.489 16.274 9.245c.529.297.826.686.872 1.085 0-.435-.288-.871-.872-1.205L11.98 5.368c-1.17-.668-2.115-.112-2.115 1.224v.12c0-1.335.946-1.882 2.115-1.223Z" fill="#fff"/><defs><linearGradient id="a" x1="19.731" y1="6.393" x2="3.168" y2="10.807" gradientUnits="userSpaceOnUse"><stop stop-color="#00A0FF"/><stop offset=".007" stop-color="#00A1FF"/><stop offset=".26" stop-color="#00BEFF"/><stop offset=".512" stop-color="#00D2FF"/><stop offset=".76" stop-color="#00DFFF"/><stop offset="1" stop-color="#00E3FF"/></linearGradient><linearGradient id="b" x1="29.776" y1="15.819" x2="9.581" y2="15.819" gradientUnits="userSpaceOnUse"><stop stop-color="#FFE000"/><stop offset=".409" stop-color="#FFBD00"/><stop offset=".775" stop-color="orange"/><stop offset="1" stop-color="#FF9C00"/></linearGradient><linearGradient id="c" x1="22.258" y1="17.736" x2="8.961" y2="40.114" gradientUnits="userSpaceOnUse"><stop stop-color="#FF3A44"/><stop offset="1" stop-color="#C31162"/></linearGradient><linearGradient id="d" x1="7.626" y1="-.724" x2="13.558" y2="9.271" gradientUnits="userSpaceOnUse"><stop stop-color="#32A071"/><stop offset=".069" stop-color="#2DA771"/><stop offset=".476" stop-color="#15CF74"/><stop offset=".801" stop-color="#06E775"/><stop offset="1" stop-color="#00F076"/></linearGradient></defs></svg>