<svg width="111" height="32" fill="none" xmlns="http://www.w3.org/2000/svg"><rect width="110.175" height="31.64" rx="5.65" fill="#000"/><path d="M35.122 5.605h1.637c.57 0 1.068.11 1.495.332.427.216.757.522.989.917.237.39.356.841.356 1.353 0 .506-.119.957-.356 1.353a2.437 2.437 0 0 1-.997.933c-.427.221-.923.332-1.487.332h-1.637v-5.22Zm1.63 4.469c.4 0 .75-.08 1.051-.238.3-.158.53-.38.688-.664.164-.285.245-.606.245-.965 0-.37-.081-.69-.245-.965a1.606 1.606 0 0 0-.688-.649c-.295-.153-.646-.229-1.052-.229h-.79v3.71h.79Zm5.594.838c-.374 0-.72-.09-1.036-.269a2.093 2.093 0 0 1-.743-.743 2.008 2.008 0 0 1-.27-1.02c0-.375.09-.715.27-1.021a2.03 2.03 0 0 1 1.78-1.005c.38 0 .727.09 1.044.27.316.179.564.424.743.735.185.311.277.651.277 1.02 0 .37-.092.71-.277 1.02a2.012 2.012 0 0 1-1.788 1.013Zm0-.767a1.191 1.191 0 0 0 1.052-.617 1.32 1.32 0 0 0 .159-.64c0-.238-.053-.454-.159-.65a1.176 1.176 0 0 0-1.044-.624 1.176 1.176 0 0 0-1.052.625 1.342 1.342 0 0 0-.158.648c0 .238.053.454.158.649.106.19.248.34.428.45.184.106.39.159.617.159Zm8.866-3.204-1.724 3.971h-.285l-1.218-2.586-1.218 2.586h-.285l-1.724-3.97h.886l1.02 2.538 1.179-2.626h.284l1.195 2.595 1.004-2.508h.886Zm2.686-.087c.453 0 .81.143 1.068.428.258.279.387.65.387 1.115v2.428h-.83V8.508c0-.27-.08-.486-.238-.65a.782.782 0 0 0-.609-.252.868.868 0 0 0-.64.253.894.894 0 0 0-.245.649v2.317h-.831V6.941h.775v.38c.296-.311.683-.467 1.163-.467Zm2.612-1.961h.83v5.932h-.83V4.893Zm3.835 6.02c-.375 0-.72-.09-1.036-.27a2.092 2.092 0 0 1-.744-.743 2.008 2.008 0 0 1-.269-1.02c0-.375.09-.715.27-1.021a2.03 2.03 0 0 1 1.779-1.005c.38 0 .727.09 1.044.27.316.179.564.424.743.735.185.311.277.651.277 1.02 0 .37-.092.71-.276 1.02a2.012 2.012 0 0 1-1.788 1.013Zm0-.768a1.19 1.19 0 0 0 1.052-.617 1.33 1.33 0 0 0 .158-.64c0-.238-.053-.454-.158-.65a1.175 1.175 0 0 0-1.044-.624 1.176 1.176 0 0 0-1.052.625 1.342 1.342 0 0 0-.159.648c0 .238.053.454.159.649.105.19.247.34.427.45.184.106.39.159.617.159Zm4.511-3.29c.48 0 .865.14 1.155.419.29.28.435.68.435 1.202v2.35h-.775v-.436a1.396 1.396 0 0 1-.53.388c-.21.09-.448.134-.712.134-.406 0-.733-.103-.98-.308a1.006 1.006 0 0 1-.372-.815.97.97 0 0 1 .387-.807c.259-.2.607-.3 1.044-.3h1.1v-.254c0-.268-.074-.474-.222-.617-.142-.142-.345-.213-.609-.213-.216 0-.408.047-.577.142-.169.095-.335.24-.498.435l-.483-.49a1.86 1.86 0 0 1 .712-.625c.28-.137.588-.206.925-.206Zm-.253 3.416c.28 0 .517-.087.712-.26a.843.843 0 0 0 .293-.657v-.071h-.997c-.221 0-.393.04-.514.118a.404.404 0 0 0-.174.356c0 .164.063.29.19.38a.83.83 0 0 0 .49.134Zm6.788-5.378v5.932h-.775v-.553c-.142.2-.332.358-.57.474-.237.11-.5.166-.79.166a1.87 1.87 0 0 1-.981-.26 1.903 1.903 0 0 1-.673-.729 2.193 2.193 0 0 1-.245-1.036c0-.38.082-.725.245-1.036.164-.311.39-.554.68-.728.29-.179.615-.269.974-.269.268 0 .514.05.735.15.227.096.414.233.562.412V4.893h.838Zm-1.993 5.26c.206 0 .395-.045.57-.135.179-.095.324-.237.434-.427.111-.19.167-.424.167-.704 0-.28-.056-.514-.167-.704a1.091 1.091 0 0 0-.435-.427 1.2 1.2 0 0 0-1.178.024 1.15 1.15 0 0 0-.427.443c-.106.19-.158.408-.158.656 0 .248.05.47.15.665.105.19.248.34.427.45.184.106.39.159.617.159Zm7.215.76c-.375 0-.72-.09-1.036-.27a2.093 2.093 0 0 1-.744-.743 2.008 2.008 0 0 1-.269-1.02c0-.375.09-.715.27-1.021a2.03 2.03 0 0 1 1.779-1.005c.38 0 .728.09 1.044.27.316.179.564.424.743.735.185.311.277.651.277 1.02 0 .37-.092.71-.277 1.02a2.012 2.012 0 0 1-1.787 1.013Zm0-.768a1.191 1.191 0 0 0 1.052-.617 1.33 1.33 0 0 0 .158-.64c0-.238-.053-.454-.158-.65a1.176 1.176 0 0 0-1.044-.624 1.176 1.176 0 0 0-1.052.625 1.343 1.343 0 0 0-.159.648c0 .238.053.454.159.649.105.19.248.34.427.45.184.106.39.159.617.159Zm4.954-3.29c.454 0 .81.142 1.068.427.259.279.388.65.388 1.115v2.428h-.83V8.508c0-.27-.08-.486-.238-.65a.782.782 0 0 0-.609-.252.868.868 0 0 0-.64.253.893.893 0 0 0-.246.649v2.317h-.83V6.941h.775v.38c.295-.311.683-.467 1.162-.467Zm7.139 3.266v.704a3.185 3.185 0 0 1-.688.087c-.448 0-.8-.11-1.052-.332-.253-.227-.38-.567-.38-1.02v-1.9h-.633v-.72h.633V5.92h.839v1.02h1.154v.72h-1.154v1.827c0 .248.063.422.19.523.131.1.324.15.577.15.116 0 .287-.013.514-.04Zm2.796-3.267c.443 0 .793.143 1.052.428.258.284.387.656.387 1.115v2.428h-.83v-2.31c0-.268-.077-.485-.23-.648-.153-.169-.358-.253-.617-.253a.868.868 0 0 0-.64.253.893.893 0 0 0-.245.648v2.31h-.831V4.893h.83v2.436c.132-.153.293-.269.483-.348.195-.084.409-.127.64-.127Zm6.092 2.302h-2.895c.053.317.192.567.42.752.231.179.513.269.846.269.406 0 .783-.153 1.13-.46l.396.57a2.19 2.19 0 0 1-1.55.625c-.396 0-.752-.087-1.068-.26a2.032 2.032 0 0 1-.752-.729 2.039 2.039 0 0 1-.268-1.036c0-.374.087-.717.26-1.028a1.988 1.988 0 0 1 1.749-1.005c.342 0 .648.08.917.238.274.153.488.364.64.632.16.27.238.573.238.91 0 .164-.02.338-.063.522ZM95.83 7.558a1.08 1.08 0 0 0-.72.261c-.2.17-.332.399-.395.689h2.112c-.006-.296-.106-.528-.3-.697a1.01 1.01 0 0 0-.697-.253ZM40.666 23.052H36.47l-.664 1.553H34.21l4.11-9.478h.509l4.11 9.478h-1.61l-.664-1.553Zm-2.09-5.142-1.569 3.856h3.122l-1.554-3.856Zm9.338-.395c.65 0 1.233.16 1.751.48.518.31.923.744 1.215 1.3.292.545.438 1.157.438 1.835 0 .688-.146 1.31-.438 1.865-.292.546-.697.98-1.215 1.3a3.338 3.338 0 0 1-1.751.466c-.471 0-.91-.085-1.314-.255a2.834 2.834 0 0 1-1.003-.748v3.39h-1.483V17.67h1.384v.974a2.533 2.533 0 0 1 1.017-.833c.424-.198.89-.296 1.399-.296Zm-.24 5.89a2.08 2.08 0 0 0 1.073-.283 2.17 2.17 0 0 0 .763-.805c.188-.339.282-.73.282-1.172 0-.443-.094-.834-.282-1.173a1.909 1.909 0 0 0-.763-.805 2.001 2.001 0 0 0-1.074-.297c-.367 0-.71.085-1.03.255-.311.16-.566.41-.763.748-.198.34-.297.758-.297 1.258 0 .499.099.922.297 1.27.197.34.452.594.762.764.32.16.664.24 1.031.24Zm8.939-5.89c.65 0 1.233.16 1.751.48.518.31.923.744 1.215 1.3.292.545.438 1.157.438 1.835 0 .688-.146 1.31-.438 1.865-.292.546-.697.98-1.215 1.3a3.338 3.338 0 0 1-1.751.466c-.471 0-.91-.085-1.314-.255a2.835 2.835 0 0 1-1.003-.748v3.39h-1.483V17.67h1.384v.974a2.534 2.534 0 0 1 1.017-.833c.424-.198.89-.296 1.399-.296Zm-.24 5.89a2.08 2.08 0 0 0 1.073-.283 2.17 2.17 0 0 0 .763-.805c.188-.339.282-.73.282-1.172 0-.443-.094-.834-.282-1.173a1.91 1.91 0 0 0-.763-.805 2.001 2.001 0 0 0-1.073-.297c-.368 0-.712.085-1.032.255-.31.16-.565.41-.762.748-.198.34-.297.758-.297 1.258 0 .499.099.922.297 1.27.197.34.452.594.762.764.32.16.664.24 1.032.24ZM68.21 24.76c-.763 0-1.45-.18-2.062-.537a3.93 3.93 0 0 1-1.455-1.483l1.06-.805c.31.452.658.814 1.045 1.087.395.264.861.396 1.398.396.48 0 .866-.118 1.158-.353a1.14 1.14 0 0 0 .452-.947c0-.33-.108-.588-.325-.777-.207-.188-.555-.395-1.045-.621l-1.031-.48c-.678-.311-1.21-.664-1.596-1.06-.386-.395-.58-.904-.58-1.525 0-.5.132-.942.396-1.328a2.578 2.578 0 0 1 1.06-.89c.452-.207.946-.31 1.483-.31a3.44 3.44 0 0 1 1.78.466c.527.3.936.701 1.228 1.2l-1.045.805a2.539 2.539 0 0 0-.876-.833 2.075 2.075 0 0 0-1.087-.297c-.396 0-.73.1-1.003.297-.273.188-.41.466-.41.833a.97.97 0 0 0 .156.565c.103.15.24.278.41.382.169.094.413.22.734.381l1.045.48c.753.349 1.314.725 1.68 1.13.368.405.552.914.552 1.526a2.53 2.53 0 0 1-.41 1.426 2.63 2.63 0 0 1-1.116.947 3.783 3.783 0 0 1-1.596.325Zm8.782-1.413v1.257a5.686 5.686 0 0 1-1.23.156c-.8 0-1.426-.198-1.878-.594-.452-.405-.678-1.012-.678-1.822v-3.39h-1.13V17.67h1.13v-1.822h1.498v1.822h2.062v1.285h-2.063v3.263c0 .443.114.753.34.932.235.18.579.269 1.03.269.208 0 .514-.024.919-.07Zm4.374 1.413c-.669 0-1.285-.16-1.85-.48a3.736 3.736 0 0 1-1.328-1.328 3.586 3.586 0 0 1-.48-1.822c0-.67.16-1.276.48-1.823a3.626 3.626 0 0 1 3.178-1.793c.678 0 1.3.16 1.864.48a3.49 3.49 0 0 1 1.328 1.313c.33.556.495 1.163.495 1.823 0 .659-.165 1.266-.495 1.822a3.59 3.59 0 0 1-1.328 1.327c-.565.32-1.186.48-1.864.48Zm0-1.37a2.126 2.126 0 0 0 1.879-1.102c.188-.349.282-.73.282-1.144 0-.424-.094-.81-.282-1.159a2.099 2.099 0 0 0-1.865-1.116 2.1 2.1 0 0 0-1.879 1.116 2.396 2.396 0 0 0-.282 1.159c0 .423.094.81.282 1.158.189.339.443.607.763.805.33.188.697.282 1.102.282Zm9.144-5.721v1.313h-.452c-.584 0-1.069.17-1.455.509-.386.33-.579.8-.579 1.412v3.701h-1.483V17.67h1.384v.904a2.53 2.53 0 0 1 2.02-.975c.207 0 .395.024.565.07Zm7.221 3.955h-5.17c.095.565.344 1.012.75 1.342.413.32.917.48 1.51.48.726 0 1.399-.273 2.02-.82l.707 1.018c-.791.744-1.714 1.116-2.769 1.116-.706 0-1.342-.156-1.907-.466a3.627 3.627 0 0 1-1.342-1.3 3.639 3.639 0 0 1-.48-1.85c0-.669.156-1.281.466-1.837.32-.555.754-.993 1.3-1.313a3.586 3.586 0 0 1 1.822-.48c.612 0 1.158.14 1.638.423.49.273.871.65 1.144 1.13a3.14 3.14 0 0 1 .424 1.625c0 .291-.037.602-.113.932Zm-3.15-2.853c-.49 0-.918.155-1.285.466-.358.301-.593.71-.706 1.229h3.771c-.01-.528-.188-.942-.537-1.243-.339-.302-.753-.452-1.243-.452Zm-68.038-6.366c-.13.096-2.403 1.335-2.403 4.09 0 3.187 2.893 4.314 2.98 4.342-.013.069-.46 1.544-1.526 3.047-.95 1.322-1.943 2.643-3.453 2.643-1.51 0-1.9-.848-3.642-.848-1.7 0-2.303.876-3.685.876-1.381 0-2.345-1.224-3.453-2.727-1.284-1.765-2.321-4.507-2.321-7.11 0-4.174 2.807-6.387 5.57-6.387 1.468 0 2.692.931 3.613.931.877 0 2.245-.987 3.916-.987.633 0 2.907.056 4.404 2.13Zm-5.197-3.897c.69-.793 1.179-1.892 1.179-2.991a2 2 0 0 0-.042-.432c-1.124.04-2.46.724-3.267 1.628-.633.695-1.224 1.795-1.224 2.909 0 .168.03.335.042.389.072.013.187.028.302.028 1.009 0 2.277-.653 3.01-1.531Z" fill="#fff"/></svg>