<svg width="24" height="25" fill="none" xmlns="http://www.w3.org/2000/svg"><g clip-path="url(#a)"><g clip-path="url(#b)" stroke="#fff" stroke-width="1.5"><path d="m14 12.23-3.5 2v-4l3.5 2Z" fill="#fff" stroke-linecap="round" stroke-linejoin="round"/><path d="M2 12.938v-1.416c0-2.895 0-4.343.905-5.274.906-.932 2.332-.972 5.183-1.053 1.35-.038 2.73-.065 3.912-.065 1.181 0 2.561.027 3.912.065 2.851.081 4.277.121 5.182 1.053.906.931.906 2.379.906 5.274v1.415c0 2.896 0 4.344-.905 5.275-.906.931-2.331.972-5.183 1.052-1.35.039-2.73.066-3.912.066a141.1 141.1 0 0 1-3.912-.066c-2.851-.08-4.277-.12-5.183-1.052C2 17.28 2 15.832 2 12.938Z"/></g></g><defs><clipPath id="a"><path fill="#fff" transform="translate(0 .23)" d="M0 0h24v24H0z"/></clipPath><clipPath id="b"><path fill="#fff" transform="translate(0 .23)" d="M0 0h24v24H0z"/></clipPath></defs></svg>