<svg width="60" height="41" fill="none" xmlns="http://www.w3.org/2000/svg"><path fill-rule="evenodd" clip-rule="evenodd" d="M19.138.577c-3.878.272-7.671 1.64-10.786 3.888-.874.63-1.445 1.113-2.302 1.946-.848.824-1.34 1.368-1.937 2.14-3.37 4.362-4.75 9.837-3.84 15.246.602 3.57 2.244 6.983 4.699 9.76.502.568 1.66 1.689 2.24 2.169 4.396 3.635 10.077 5.318 15.812 4.683 7.293-.808 13.652-5.39 16.578-11.947 1.128-2.53 1.673-5.1 1.674-7.905 0-1.394-.08-2.307-.319-3.596-1.04-5.635-4.608-10.626-9.719-13.599C28.468 1.752 25.337.8 22.05.572a30.477 30.477 0 0 0-2.912.005Zm13.512.12c0 .009.126.088.28.176.155.088.537.326.85.528 4.954 3.204 8.496 8.09 9.907 13.668.276 1.09.47 2.246.608 3.615.076.75.063 3.1-.021 3.915-.28 2.715-.95 5.148-2.074 7.53-1.936 4.102-5.27 7.722-9.28 10.075l-.328.192.213-.024c.475-.054 1.689-.285 2.322-.442 4.99-1.238 9.302-4.224 12.147-8.415a19.495 19.495 0 0 0 .427-21.307C44.56 5.163 39.328 1.726 33.347.778c-.604-.096-.697-.106-.697-.08Zm9.822.275c2.58 1.57 4.73 3.474 6.503 5.762 2.775 3.58 4.362 7.697 4.708 12.212.052.681.051 2.51-.002 3.203-.469 6.19-3.408 11.822-8.283 15.875-.903.75-2.188 1.651-3.113 2.18-.155.09-.274.17-.265.178.045.044 1.558-.23 2.424-.44 7.85-1.897 13.91-8.23 15.287-15.976.222-1.252.266-1.803.269-3.371.002-1.538-.02-1.874-.196-3.035-.553-3.638-2.117-6.996-4.616-9.91-.503-.586-1.925-1.967-2.512-2.439-2.633-2.116-5.59-3.53-8.842-4.225A21.062 21.062 0 0 0 42.2.7l-.212-.024.485.295Zm-19.207 11.41c-.006.23-.03.96-.054 1.62-.024.659-.051 3.46-.06 6.226-.018 5.559-.031 5.225.228 5.743.151.3.479.625.766.76.326.151.82.275 1.705.426l.808.139v1.896H14.712v-1.906l.164-.02c.09-.012.469-.048.841-.08s.798-.075.947-.094c.584-.078 1.192-.343 1.469-.642.227-.245.325-.513.371-1.02.023-.252.034-2.263.027-5.135l-.011-4.72-1.944-.01-1.943-.01.01-.702.01-.702 1.006-.023c1.065-.024 1.345-.058 2.126-.255 1.142-.288 2.412-.942 3.112-1.602l.329-.31h1.025l1.025-.001-.011.421Z" fill="#920629"/></svg>