<svg width="42" height="41" fill="none" xmlns="http://www.w3.org/2000/svg"><g clip-path="url(#a)" fill="#fff"><path fill-rule="evenodd" clip-rule="evenodd" d="M1.914 5.723A1.914 1.914 0 0 1 .006 3.815c0-1.049.859-1.907 1.908-1.907h5.039c.725 0 1.412.42 1.717 1.087l1.28 2.728h.004l6.275 13.353H30.05l6.385-11.888s.786-1.465 1.74-1.465h.02c1.45 0 2.366 1.564 1.66 2.823l-6.832 12.38a3.8 3.8 0 0 1-3.34 1.965H15.465l-2.1 3.816h20.993c1.05 0 1.909.858 1.909 1.907 0 1.05-.859 1.908-1.909 1.908H13.366c-2.9 0-4.733-3.11-3.34-5.666l2.577-4.654-6.87-14.48h-3.82Zm7.653 30.522c0-2.099 1.699-3.816 3.798-3.816 2.1 0 3.817 1.717 3.817 3.816a3.827 3.827 0 0 1-3.817 3.815c-2.1 0-3.798-1.717-3.798-3.815Zm22.883-3.816c-2.1 0-3.798 1.717-3.798 3.816 0 2.098 1.699 3.815 3.798 3.815 2.1 0 3.817-1.717 3.817-3.815a3.827 3.827 0 0 0-3.817-3.816Z"/><path d="M28.635 5.723H17.184a1.908 1.908 0 1 0 0 3.815h11.45a1.908 1.908 0 1 0 0-3.815Z"/><path d="M21 1.908v11.445a1.908 1.908 0 0 0 3.817 0V1.908a1.908 1.908 0 0 0-3.817 0Z"/></g><defs><clipPath id="a"><path fill="#fff" d="M0 0h42v40.06H0z"/></clipPath></defs></svg>