<svg width="19" height="21" fill="none" xmlns="http://www.w3.org/2000/svg"><g clip-path="url(#a)"><g clip-path="url(#b)"><g clip-path="url(#c)" fill="#fff"><path d="M18.575 18.18c-.037.104-.068.209-.117.308a1.017 1.017 0 0 1-.402.42c-.71.407-1.476.698-2.26.938a18.89 18.89 0 0 1-3.032.643c-1.204.16-2.408.228-3.619.191a36.45 36.45 0 0 1-2.328-.154 17.02 17.02 0 0 1-3.755-.797c-.654-.216-1.303-.47-1.896-.827-.352-.21-.518-.507-.494-.933.044-.673.112-1.346.278-2 .186-.723.42-1.44.859-2.057.722-1.013 1.66-1.73 2.865-2.069.383-.111.778-.148 1.167-.03.173.055.334.153.494.234a6.936 6.936 0 0 0 2.1.654c.642.105 1.29.118 1.94.056.932-.086 1.827-.309 2.648-.766.488-.278.982-.309 1.495-.16 1.55.45 2.692 1.395 3.36 2.877.351.785.555 1.618.63 2.477.024.265.043.537.061.803 0 .037.012.074.018.11-.012.032-.012.056-.012.081Zm-9.053 1.105c.803-.038 1.513-.05 2.223-.118.71-.062 1.414-.167 2.118-.284a11.95 11.95 0 0 0 2.446-.667c.166-.068.34-.13.488-.222.185-.111.333-.266.333-.5 0-.124-.018-.241-.025-.365a4.975 4.975 0 0 0-.63-2.087c-.568-1.025-1.45-1.637-2.6-1.84-.327-.056-.66-.05-.975.105-.142.067-.29.13-.445.179-.858.284-1.741.376-2.637.407a10.46 10.46 0 0 1-1.815-.117c-.58-.08-1.149-.198-1.68-.45-.284-.137-.574-.162-.877-.13-.722.074-1.352.37-1.902.845-.506.439-.821.995-1.075 1.6-.247.599-.345 1.229-.376 1.877-.006.08.037.167.074.235a.667.667 0 0 0 .333.29c.31.124.612.26.927.364 1.192.396 2.427.624 3.674.735.84.068 1.68.1 2.42.143ZM9.905.696l.45.056c.915.13 1.73.481 2.446 1.056 1.013.809 1.649 1.852 1.865 3.13.266 1.594-.123 3.02-1.173 4.25a4.879 4.879 0 0 1-2.84 1.667c-1.557.309-2.977-.025-4.225-1.007-1.044-.821-1.667-1.902-1.883-3.205a5.146 5.146 0 0 1 2.853-5.447A5.087 5.087 0 0 1 9.256.71c.025 0 .05-.013.08-.019.186.006.377.006.569.006Zm3.415 5.138a3.712 3.712 0 0 0-3.68-3.711 3.716 3.716 0 0 0-3.737 3.693A3.716 3.716 0 0 0 9.608 9.54a3.706 3.706 0 0 0 3.712-3.706Z"/></g></g></g><defs><clipPath id="a"><path fill="#fff" transform="translate(.67 .69)" d="M0 0h18v20H0z"/></clipPath><clipPath id="b"><path fill="#fff" transform="translate(.67 .69)" d="M0 0h18v20H0z"/></clipPath><clipPath id="c"><path fill="#fff" transform="translate(.67 .69)" d="M0 0h18v20H0z"/></clipPath></defs></svg>