<svg width="18" height="24" fill="none" xmlns="http://www.w3.org/2000/svg"><g clip-path="url(#a)" stroke="#7A0037" stroke-width="2"><path d="M9 13.69a4 4 0 1 0 0-8 4 4 0 0 0 0 8Z"/><path d="M17 9.69c0 2.036-.893 4.037-1.832 5.445-1.015 1.523-2.457 3.09-3.785 4.348a29.283 29.283 0 0 1-1.794 1.574c-.23.184-.427.333-.589.45a14.31 14.31 0 0 1-.59-.45 29.262 29.262 0 0 1-1.793-1.574c-1.328-1.258-2.77-2.825-3.785-4.348C1.893 13.727 1 11.725 1 9.69a8 8 0 1 1 16 0Z"/></g><defs><clipPath id="a"><path fill="#fff" transform="translate(0 .19)" d="M0 0h18v23H0z"/></clipPath></defs></svg>