<svg width="26" height="18" fill="none" xmlns="http://www.w3.org/2000/svg"><g clip-path="url(#a)"><mask id="b" style="mask-type:luminance" maskUnits="userSpaceOnUse" x="0" y="-1" width="27" height="19"><path d="M24.86.19h-23a1 1 0 0 0-1 1v15a1 1 0 0 0 1 1h23a1 1 0 0 0 1-1v-15a1 1 0 0 0-1-1Z" fill="#fff" stroke="#7A0037"/></mask><g mask="url(#b)"><path d="M24.86.19h-23a1 1 0 0 0-1 1v15a1 1 0 0 0 1 1h23a1 1 0 0 0 1-1v-15a1 1 0 0 0-1-1Z" stroke="#7A0037" stroke-width="4"/></g><path d="m1.86 3.19 8 5.565m0 0 1.787 1.243a3 3 0 0 0 3.426 0l1.787-1.243m-7 0-8 5.435m23-11-8 5.565m0 0 8 5.435" stroke="#7A0037" stroke-width="2"/></g><defs><clipPath id="a"><path fill="#fff" transform="translate(.86 .19)" d="M0 0h25v17H0z"/></clipPath></defs></svg>