<svg width="301" height="57" fill="none" xmlns="http://www.w3.org/2000/svg"><g clip-path="url(#a)"><path d="M44.469 56.69c-11.568 0-22.452-2.255-30.662-6.327C4.913 45.916 0 39.84 0 33.137c0-6.702 4.913-12.84 13.807-17.226 6.033-3.006 13.434-5.01 21.644-5.888v-.626c0-1.629.684-4.072 2.674-6.013C39.37 2.13 41.484.69 44.842.69c6.593 0 9.33 5.7 9.33 8.77v.689c7.96.877 15.175 2.881 21.02 5.825C84.088 20.36 89 26.498 89 33.2c0 6.703-4.913 12.841-13.807 17.226-8.272 4.009-19.156 6.264-30.724 6.264Z" fill="#fff"/><path d="M61.122 21.722c1.584-.312 1.775 1.747.507 2.37-1.204.687-1.584.687-2.09 1.31-.571.624-2.155 3.806-.064 3.806 2.408 0 3.802-2.433 4.055-3.057.887-2.12 1.14-2.62 2.218-2.12.697.311-.253 2.058-.444 2.62-2.788 7.985-1.584 13.974-1.457 14.785.127 1.247-.19 2.12-1.14 2.246-.824.062-1.775-.188-2.092-1.934-.95-5.365 2.028-12.727 2.028-12.727s-3.168 4.18-5.513 2.183c-1.647-1.497.254-4.928.317-5.24-.57.437-1.204.5-1.394.063-.444-1.123 2.028-1.123 2.471-1.747.76-1.622 1.521-2.37 2.598-2.558Zm-44.089 7.752c.248-1.455 3.793-10.386 16.48-12.636 1.43-.264 2.364-.132 2.923.066.871.265.622 1.125 0 1.191-.621.066-12.687 1.456-15.796 11.975-1.058 2.58-3.98 1.852-3.607-.596Zm17.792 14.103c-1.226.909-3.494-3.572-2.636-16.367.123-2.013 3.004-2.208 2.758.52-1.287 14.872.613 15.262-.122 15.847Z" fill="#8E0732"/><path d="M18.87 45.236c1.573-2.838 2.753-3.741 3.427-6.902 0 0-.843 1.935-2.19 2.064-.956.064-1.911-.839-2.36-1.806-.73-1.548-.787-2.903-.73-5.29.055-2.321 3.201-1.87 3.145-.322-.224 3.225.394 4.128.955 4.386.562.258 1.742-.71 2.023-2.322.168-.967.337-1.483.337-1.483.168-1.161 1.63-1.032 1.517.129-.393 5.418-1.292 9.61-3.54 13.674-.786 1.032-3.651-.58-2.584-2.128Zm12.106-21.592c-.062.58-2.38 24.026-2.442 24.67-.188 1.869-3.883 2.255-3.507-1.545.188-1.675 3.006-23.125 3.069-23.447.313-2.32 3.193-2.126 2.88.322Zm28.938 18.58c-.924-2.074-1.417-3.112-.863-5.37.123-.427.123-1.281-.8-1.159-.801.122-.801 1.22-1.417 1.037-2.094-.488-1.848.672-1.724.977.554 1.16.246 1.952-.555 1.952-.8 0-1.54-1.342-.184-2.623-.062.06 3.449-3.174 1.662-4.211-1.355-.671-2.586 1.282-3.079 2.44-1.478 3.601-1.97 4.333-2.402 4.455-.431.061.062-2.257.431-3.295.555-1.342.8-2.99-.123-2.99-1.97 0-3.942 3.845-4.742 5.065-1.17 1.77-1.047.122-1.91.183-1.047.122-.923 1.282-1.416 1.282-.8-.061.677-3.113.924-3.845.123-.366.308-.793.061-1.037-.554-.61-1.047.183-1.17.305.062-2.014-1.293-2.075-2.587-1.526-3.14 1.343-3.88 4.516-4.003 5.736-.246 2.32 2.217 4.882 4.62 1.099 0 0-.247 1.953 1.17 1.953.923 0 1.909-2.014 1.909-2.014s.061 2.014 1.293 2.014c.986 0 1.97-2.685 2.525-3.845.431-.854.986-2.014 1.355-2.44.308-.428.431-.245.308 0-1.848 4.27-.924 6.285-.062 6.285.986 0 1.663-.55 2.772-2.32.246 1.343 1.047 2.32 2.464 2.32 1.478 0 2.586-2.624 2.155-4.333-.246-.854.678-.793.678-.305-.062 1.953.308 3.112 1.97 4.454.185.183 1.11.489.74-.244Zm-5.112-7.688c.37.183-.678 1.464-.74 1.586 0-.122.37-1.77.74-1.586ZM41.19 37.892c-.37.549-.863 1.342-1.787 1.342-1.293-.06-.985-1.891-.43-2.685.738-1.037 1.354-1.281 1.785-1.22 1.17.244-.677 1.403 0 1.77l.37.183c0-.061.493.122.062.61Zm30.706 6.322c-.694-1.152-1.072-3.84-.757-5.825.063-.896-.946-.64-.946-.64s.883-1.28.63-2.88c-.125-.896-1.134-1.472-2.648-1.024-2.775.832-3.974 3.904-4.163 6.017-.189 2.112 1.83 4.928 5.109.704.19 1.6 1.324 3.264 2.144 3.968.252.192 1.01.32.631-.32Zm-3.153-6.72c-.568.447.252.831.252.831.189.192-.126.64-.82.832-.126.065-2.144.385-1.64-1.791.379-1.473 2.018-2.625 2.901-2.24.757.32.19 1.535-.694 2.367Zm-18.768-25.28c-1.568 7.165-3.574 9.64-4.013 10.16-.438.522-1.19.457-1.504-.65-.063-.326-1.191-4.039-4.137-3.062 0 0-.251.13-.314-.13s.314-.39.314-.39c2.507-1.369 4.639 1.172 4.701 1.237.69.716 1.63-.26 1.88-1.433.252-.912.189-2.41-1.88-1.563-.313.13-2.758.911-1.943-1.433.188-.652.627-1.694.94-2.54.564-1.629.25-4.364-2.006-2.932-.564.326-1.254 1.303-1.692 1.954-.126.196-.377.13-.251-.195.125-.326 1.065-2.54 2.57-3.322 1.316-.716 3.95.196 2.57 3.908-.564 1.433-.376 2.996.752 2.996 2.006 0 3.198-1.823 3.7-2.8.062-.391.438-.26.313.195Z" fill="#8E0732"/><path d="M74.923 17c-6.098-3.049-13.704-5.082-22.064-5.908v-1.97c0-2.604-2.326-7.432-7.983-7.432-2.892 0-4.715 1.27-5.783 2.35-1.697 1.716-2.263 3.812-2.263 5.083v1.97c-8.549.762-16.406 2.795-22.692 5.908C5.652 21.193 1 26.975 1 33.2c0 6.225 4.652 11.943 13.138 16.2 8.171 4.066 18.92 6.289 30.36 6.289 11.441 0 22.253-2.223 30.362-6.29 8.486-4.256 13.138-9.974 13.138-16.2.125-6.225-4.59-11.943-13.075-16.2Zm-35.39-7.432c0-2.796 2.389-5.083 5.28-5.083 2.954 0 5.343 2.287 5.343 5.083v16.454H39.47V9.568h.063Zm5.029 43.327c-22.63 0-40.922-8.83-40.922-19.758 0-9.593 14.206-17.598 33.064-19.376h.377V29.77h15.527V13.824h.251c18.607 1.842 32.624 9.784 32.624 19.313 0 10.927-18.292 19.758-40.921 19.758Z" fill="#8E0732"/><path d="M31.467 45.943h.755v2.288h.693v-2.288h.755v-.636h-2.266v.636h.063Zm3.713-.636c-.629 0-1.384.382-1.384 1.462s.755 1.462 1.385 1.462c.629 0 1.384-.381 1.384-1.462 0-1.08-.755-1.462-1.384-1.462Zm0 2.416c-.251 0-.692-.127-.692-.954 0-.89.504-.953.693-.953.188 0 .692.063.692.953 0 .89-.504.954-.692.954Zm2.58-2.416h-.88v2.86h.692v-1.016h.314c.693 0 1.008-.509 1.008-.954 0-.063-.063-.89-1.133-.89Zm0 1.335h-.188v-.763h.189c.251 0 .377.128.377.382 0 .19-.063.381-.377.381Zm1.448 1.589h.693v-2.288h1.132v-.636h-1.825v2.924Zm3.147-2.924c-.63 0-1.385.382-1.385 1.462s.755 1.462 1.385 1.462 1.384-.381 1.384-1.462c.063-1.08-.692-1.462-1.384-1.462Zm0 2.416c-.189 0-.692-.064-.692-.954 0-.89.503-.953.692-.953.189 0 .692.063.692.953 0 .89-.44.954-.692.954Zm3.335-1.017c.19-.064.315-.255.315-.636 0-.445-.377-.763-.944-.763h-.944v2.86h.944c1.007 0 1.133-.572 1.133-.826-.063-.254-.189-.508-.504-.635Zm-.88-.827h.188c.315 0 .378.191.378.318 0 .064-.063.318-.378.318h-.189v-.636Zm.251 1.78h-.252v-.636h.252c.315 0 .44.128.44.318-.062.191-.188.318-.44.318Zm2.266-2.352-1.133 2.86h.692s.189-.572.252-.635h1.07c0 .064.252.636.252.636h.755l-1.196-2.86h-.692Zm.063 1.716c.063-.127.251-.699.314-.89.063.191.252.763.315.89h-.63Zm2.328-1.398a.977.977 0 0 0-.252.636c0 .508.315.762.504.826a49.395 49.395 0 0 1-.692 1.144h.818s.503-.953.503-1.017h.252v1.017h.692v-2.924H50.6c-.126 0-.566 0-.88.318Zm1.133 1.017h-.252c-.189 0-.44-.063-.44-.381 0-.19.063-.382.44-.382h.252v.763Zm5.539.636c-.064-.127-.63-1.97-.63-1.97h-1.007v2.86h.692V46.07l.693 2.097h.629s.692-2.033.692-2.097v2.097h.692v-2.86h-1.007c-.125 0-.755 1.844-.755 1.97Zm2.957-1.971-1.133 2.86h.693s.188-.572.251-.635h1.07c0 .064.252.636.252.636h.755l-1.133-2.86h-.755Zm0 1.716c.063-.127.252-.699.315-.89.063.191.252.763.315.89h-.63Zm2.895-1.716h-.88v2.86h.691v-1.016h.315c.692 0 1.007-.509 1.007-.954 0-.063-.063-.89-1.133-.89Zm0 1.335h-.189v-.763h.19c.251 0 .377.128.377.382 0 .19-.063.381-.378.381Zm3.713-1.335h-.818s-.755.954-.881 1.08v-1.08h-.692v2.86h.692v-1.27c.126.19.944 1.27.944 1.27h.881s-1.196-1.525-1.259-1.588l1.133-1.272Zm2.015 0h-.693l-1.133 2.86h.692s.19-.572.252-.635h1.07c0 .064.252.636.252.636h.755l-1.196-2.86Zm-.693 1.716c.063-.127.252-.699.315-.89.063.191.252.763.314.89h-.629ZM56.83 16.452c-1.51 0-2.706 1.208-2.706 2.67s1.258 2.67 2.706 2.67c1.51 0 2.706-1.209 2.706-2.67 0-1.462-1.196-2.67-2.706-2.67Zm0 4.894c-1.259 0-2.266-1.017-2.266-2.224 0-1.208 1.007-2.225 2.266-2.225 1.258 0 2.265 1.017 2.265 2.225 0 1.27-1.007 2.224-2.265 2.224Z" fill="#8E0732"/><path d="M58.089 18.55c0-.636-.44-.89-1.133-.89H55.76v2.987h.63v-1.271h.314l.252.445.44.762h.756l-.756-1.27c.378-.064.693-.255.693-.763Zm-1.07.381h-.567v-.7h.504c.252 0 .503.064.503.319 0 .317-.189.381-.44.381Z" fill="#8E0732"/><path d="M109.992 43.877h2.847v-1.625h-7.657v1.625h2.847v7.813h1.963v-7.813Zm9.076 3.094c0 4.42 3.276 4.966 4.524 4.966 1.248 0 4.524-.546 4.524-4.966s-3.276-4.966-4.524-4.966c-1.248 0-4.524.546-4.524 4.966Zm1.963 0c0-2.639 1.495-3.302 2.561-3.302 1.066 0 2.561.663 2.561 3.302 0 2.639-1.495 3.302-2.561 3.302-1.066 0-2.561-.663-2.561-3.302Zm16.005 1.313h2.262c2.535 0 3.003-2.171 3.003-3.016 0-1.859-1.092-3.016-2.912-3.016h-4.316v9.438h1.963v-3.406Zm0-4.407h1.573c1.222 0 1.729.39 1.729 1.313 0 .585-.169 1.469-1.469 1.469h-1.833v-2.782Zm12.219-1.625v9.438h1.963v-7.813h4.758v-1.625h-6.721Zm13.108 4.719c0 4.42 3.276 4.966 4.524 4.966 1.248 0 4.524-.546 4.524-4.966s-3.276-4.966-4.524-4.966c-1.248 0-4.524.546-4.524 4.966Zm1.963 0c0-2.639 1.495-3.302 2.561-3.302 1.066 0 2.561.663 2.561 3.302 0 2.639-1.495 3.302-2.561 3.302-1.066 0-2.561-.663-2.561-3.302Zm14.041 4.719h4.056c3.484 0 3.783-2.015 3.783-2.821 0-.923-.286-1.833-1.443-2.262.39-.195 1.144-.598 1.144-1.95 0-.962-.585-2.405-2.886-2.405h-4.654v9.438Zm1.963-4.16h2.496c.715 0 1.417.325 1.417 1.144 0 .962-.559 1.391-1.521 1.391h-2.392V47.53Zm0-3.653h2.249c.897 0 1.443.247 1.443 1.014 0 .754-.611 1.053-1.391 1.053h-2.301v-2.067Zm15.545-1.625-3.354 9.438h2.067l.663-1.95h3.471l.611 1.95h2.132l-3.315-9.438h-2.275Zm1.105 2.132h.026l1.287 3.731h-2.522l1.209-3.731Zm18.609-2.132h-4.771c-1.82 0-2.964 1.378-2.964 2.873 0 1.495 1.066 2.34 2.132 2.691l-2.301 3.874h2.301l2.184-3.692h1.456v3.692h1.963v-9.438Zm-1.963 4.121h-2.275c-1.027 0-1.534-.533-1.534-1.313 0-.507.377-1.183 1.378-1.183h2.431v2.496Zm18.358-4.121v9.438h1.833v-7.891h.026l1.716 7.891h1.937l1.768-7.891h.013v7.891h1.833v-9.438h-2.847l-1.677 7.436h-.026l-1.703-7.436h-2.873Zm19.12 0-3.354 9.438h2.067l.663-1.95h3.471l.611 1.95h2.132l-3.315-9.438h-2.275Zm1.105 2.132h.026l1.287 3.731H251l1.209-3.731Zm13.097 3.9h2.262c2.535 0 3.003-2.171 3.003-3.016 0-1.859-1.092-3.016-2.912-3.016h-4.316v9.438h1.963v-3.406Zm0-4.407h1.573c1.222 0 1.729.39 1.729 1.313 0 .585-.169 1.469-1.469 1.469h-1.833v-2.782Zm14.182-1.625h-1.963v9.438h1.963v-3.198l.923-.949 2.912 4.147h2.535l-4.069-5.577 3.848-3.861h-2.548l-3.601 3.835v-3.835Zm15.519 0-3.354 9.438h2.067l.663-1.95h3.471l.611 1.95h2.132l-3.315-9.438h-2.275Zm1.105 2.132h.026l1.287 3.731h-2.522l1.209-3.731Zm-3.852-32.83h-7.71l-8.28 23.381h7.383l.856-3.093h7.547l.897 3.093h7.547l-8.24-23.381Zm-6.282 15.381 2.325-8.371 2.448 8.371h-4.773Zm-20.232-7.093c-.694.248-1.958.413-3.427.413-1.836 0-2.896-.825-2.896-2.68v-6.021h-7.587v7.216c0 5.072 4.16 7.217 7.587 7.217 3.997 0 4.976-.206 6.323-.536v9.443h7.587v-23.34h-7.587v8.288Zm-17.786-8.288h-7.587v23.381h7.587V11.554Zm-19.212 8.123h-3.59v-8.123h-7.587v23.381h11.054c5.997 0 9.627-2.474 9.627-7.464 0-5.113-3.671-7.794-9.504-7.794Zm-.816 9.774h-2.774v-4.33h1.877c2.406 0 4.16.123 4.16 2.185 0 1.732-1.387 2.145-3.263 2.145Zm-34.836-5.856c0 5.485-.857 6.103-2.366 6.103-.856 0-1.264-.082-1.713-.247v5.443c1.509.371 2.529.495 4.12.495 4.324 0 7.261-2.35 7.261-11.753v-6.639h5.343v17.897h7.588v-23.34h-20.233v12.041Zm-21.783-12.041-8.28 23.381h7.424l.856-3.093h7.547l.897 3.093h7.547l-8.281-23.381h-7.71Zm1.428 15.381 2.325-8.371 2.448 8.371h-4.773Zm-34.917 7.959h7.546V16.997h7.179v17.897h7.547v-23.34h-22.272v23.34ZM112.696 20.75l-3.671-9.196H100.5l8.525 16.99c-.449.948-.979 1.319-1.795 1.319-.856 0-1.101-.165-1.55-.33v5.32c.857.37 2.325.7 3.549.7 2.896 0 4.854-1.566 6.812-5.731l8.526-18.227h-8.159l-3.712 9.155Z" fill="#fff"/></g><defs><clipPath id="a"><path fill="#fff" transform="translate(0 .69)" d="M0 0h301v56H0z"/></clipPath></defs></svg>