<svg width="43" height="43" fill="none" xmlns="http://www.w3.org/2000/svg"><path d="M21.75 4.228V21.19M16.904 5.844l4.846 4.038 4.846-4.038M21.75 38.152V21.19m4.846 15.346-4.846-4.038-4.846 4.038M36.44 12.71l-14.69 8.48M32.617 9.32l-1.074 6.216 5.92 2.178M7.06 29.67l14.69-8.48M10.883 33.06l1.074-6.216-5.92-2.178M36.44 29.67l-14.69-8.48m15.713 3.476-5.92 2.178 1.074 6.216M7.06 12.71l14.69 8.48M6.037 17.714l5.92-2.178-1.074-6.216" stroke="#99002B" stroke-width="2.1" stroke-linecap="round"/><path d="m15.142 17.375 6.608-3.815 6.607 3.815v7.63L21.75 28.82l-6.608-3.815v-7.63Z" stroke="#99002B" stroke-width="2.1"/></svg>