<svg width="42" height="43" fill="none" xmlns="http://www.w3.org/2000/svg"><path d="m16.8 38.69-5.6-16.1h19.6l-6.3 16.1h-7.7Z" stroke="#8E0732" stroke-width="2.8" stroke-linejoin="round"/><mask id="a" style="mask-type:alpha" maskUnits="userSpaceOnUse" x="7" y="0" width="28" height="24"><path d="M35 .19H7v23.8h28V.19Z" fill="#C4C4C4"/></mask><g mask="url(#a)" stroke="#8E0732" stroke-width="2.8"><path d="M26.6 9.99a7.002 7.002 0 0 1 0 14 6.99 6.99 0 0 1-5.565-2.754"/><path d="M21 16.99a7 7 0 1 0-7-7"/><path d="M15.4 23.99a7 7 0 1 0 0-14 7 7 0 0 0 0 14Z"/></g><path d="m17.5 37.99 11.9-11.9m-14 7 10.5-10.5m-12.6 5.6 5.6-5.6" stroke="#8E0732" stroke-width="2.52"/></svg>