<svg width="42" height="43" fill="none" xmlns="http://www.w3.org/2000/svg"><mask id="a" style="mask-type:luminance" maskUnits="userSpaceOnUse" x="4" y="9" width="34" height="25"><path d="M4.2 11.39a1.4 1.4 0 0 1 1.4-1.4H35a2.8 2.8 0 0 1 2.8 2.8v18.2a2.8 2.8 0 0 1-2.8 2.8H5.6a1.4 1.4 0 0 1-1.4-1.4v-21Z" fill="#fff"/></mask><g mask="url(#a)"><path d="M4.2 11.39a1.4 1.4 0 0 1 1.4-1.4H35a2.8 2.8 0 0 1 2.8 2.8v18.2a2.8 2.8 0 0 1-2.8 2.8H5.6a1.4 1.4 0 0 1-1.4-1.4v-21Z" stroke="#8E0732" stroke-width="5.6"/></g><mask id="b" style="mask-type:alpha" maskUnits="userSpaceOnUse" x="14" y="11" width="21" height="22"><path d="M19.6 11.39H35v21H14l5.6-21Z" fill="#C4C4C4"/></mask><g mask="url(#b)" stroke="#8E0732" stroke-width="2.8"><path d="M29.4 11.39v21m-7-21v21m-7-21v21m-9.8-7h30.8m-30.8-7h30.8"/></g><path d="m14 32.39 5.6-21" stroke="#8E0732" stroke-width="2.8"/></svg>