<svg width="43" height="47" fill="none" xmlns="http://www.w3.org/2000/svg"><g clip-path="url(#a)" stroke="#99002B" stroke-width="2.369"><path d="M6.212 45.105h23.693a2.37 2.37 0 0 0 0-4.738H6.212a2.37 2.37 0 0 0 0 4.738ZM38.197 25.56a2.961 2.961 0 1 0-5.923 0v5.922a2.962 2.962 0 0 0 5.923 0V25.56Z"/><path d="M32.274 20.229v5.922s0 14.216-14.216 14.216c-14.215 0-14.215-14.215-14.215-14.215v-5.924h28.43Z" stroke-linejoin="round"/><path d="M26.35 15.49s2.37-2.03 2.37-4.062c0-1.982-3.554-4.11-3.554-6.092 0-2.03 2.37-4.061 2.37-4.061M18.058 15.49s2.37-2.03 2.37-4.062c0-1.982-3.554-4.11-3.554-6.092 0-2.03 2.37-4.061 2.37-4.061M9.766 15.49s2.37-2.03 2.37-4.062c0-1.982-3.554-4.11-3.554-6.092 0-2.03 2.369-4.061 2.369-4.061" stroke-linecap="round"/></g><defs><clipPath id="a"><path fill="#fff" transform="translate(.02 .09)" d="M0 0h42v46.2H0z"/></clipPath></defs></svg>