<svg width="46" height="46" fill="none" xmlns="http://www.w3.org/2000/svg"><path d="M37.48 37.19H8.08a2.1 2.1 0 1 0 0 4.2h29.4a2.1 2.1 0 1 0 0-4.2Z" stroke="#8E0732" stroke-width="2.8"/><path d="M7.38 23.89s.856 2.1 2.567 2.1c1.71 0 2.566-2.8 4.278-2.8 1.71 0 2.566 2.8 4.277 2.8 1.711 0 2.567-2.8 4.278-2.8 1.711 0 2.567 2.8 4.278 2.8 1.71 0 2.567-2.8 4.277-2.8 1.712 0 2.567 2.8 4.278 2.8 1.418 0 2.567-2.1 2.567-2.1" stroke="#8E0732" stroke-width="2.8" stroke-linejoin="round"/><path d="M7.38 37.19V20.723s0-1.733 1.711-1.733H36.47c1.711 0 1.711 1.733 1.711 1.733V37.19M22.78 19.96v-5.17" stroke="#8E0732" stroke-width="2.8"/><path d="M25.58 11.882c0 1.64-1.287 2.908-2.8 2.908s-2.8-1.268-2.8-2.908c0-.327.12-.858.403-1.548a13.15 13.15 0 0 1 1.08-2.032c.425-.658.862-1.22 1.226-1.599l.091-.092.09.092c.365.379.802.94 1.227 1.6a13 13 0 0 1 1.08 2.031c.283.69.403 1.22.403 1.548Zm-2.441-5.569s-.008.006-.022.012l.022-.012Zm-.696.012c-.014-.006-.022-.012-.022-.012l.022.012Z" stroke="#8E0732" stroke-width="2.8" stroke-linejoin="round"/><path d="M32.58 19.96v-5.17" stroke="#8E0732" stroke-width="2.8"/><path d="M35.38 11.882c0 1.64-1.287 2.908-2.8 2.908s-2.8-1.268-2.8-2.908c0-.327.12-.858.403-1.548a13 13 0 0 1 1.08-2.032c.425-.658.862-1.22 1.227-1.599a4.74 4.74 0 0 1 .09-.092l.09.092c.365.379.802.94 1.227 1.6.422.655.806 1.367 1.08 2.031.284.69.403 1.22.403 1.548Zm-2.441-5.569s-.008.006-.022.012a.153.153 0 0 1 .022-.012Zm-.696.012c-.014-.006-.022-.012-.022-.012l.022.012Z" stroke="#8E0732" stroke-width="2.8" stroke-linejoin="round"/><path d="M12.98 19.96v-5.17" stroke="#8E0732" stroke-width="2.8"/><path d="M15.78 11.882c0 1.64-1.287 2.908-2.8 2.908s-2.8-1.268-2.8-2.908c0-.327.12-.858.403-1.548a13.15 13.15 0 0 1 1.08-2.032c.425-.658.862-1.22 1.227-1.599l.09-.092.09.092c.365.379.802.94 1.227 1.6a13.01 13.01 0 0 1 1.08 2.031c.284.69.403 1.22.403 1.548Zm-2.44-5.569s-.008.006-.022.012l.022-.012Zm-.696.012a.16.16 0 0 1-.022-.012l.022.012Z" stroke="#8E0732" stroke-width="2.8" stroke-linejoin="round"/></svg>