<svg width="39" height="34" fill="none" xmlns="http://www.w3.org/2000/svg"><mask id="a" style="mask-type:luminance" maskUnits="userSpaceOnUse" x="0" y="0" width="39" height="34"><path d="M38.68.39H.88v33.6h37.8V.39Z" fill="#fff"/></mask><g mask="url(#a)"><path d="M27.036 9.512c.575-.424.485-1.348 0-1.867-1.722-1.846-3.718-3.094-6.178-3.834a14.693 14.693 0 0 0-8.813.113 14.33 14.33 0 0 0-7.083 5.117 13.768 13.768 0 0 0-2.682 8.19 13.77 13.77 0 0 0 2.731 8.175 14.335 14.335 0 0 0 7.114 5.076 14.7 14.7 0 0 0 8.814.063c2.455-.754 4.432-1.954 6.143-3.81.482-.522.577-1.506 0-1.927L17.68 18.59c-.348-.254-.7-.827-.7-1.4 0-.572.354-1.145.7-1.4l9.356-6.278Z" stroke="#8E0732" stroke-width="2.52"/><mask id="b" style="mask-type:alpha" maskUnits="userSpaceOnUse" x="2" y="3" width="26" height="29"><path d="M27.15 26.014a14 14 0 1 1 .041-17.596L16.28 17.19l10.87 8.824Z" fill="#8E0732"/></mask><g mask="url(#b)" stroke="#8E0732" stroke-width="2.8" stroke-linecap="round"><path d="m22.674 29.467-.161-2.684M10.048 7.598l-.162-2.684M6.687 23.423l-2.684.16m23.952 1.042-1.481-2.244M6.086 11.999 4.605 9.755m19.11-4.24-2.244 1.481M11.09 27.384l-2.245 1.481M4.856 17.791 2.451 16.59m14.43-13.229L15.68 5.766m1.201 22.848-1.202 2.405"/></g><path d="M36.02 17.19v.021c.045 2.688-.726 5.361-1.94 7.878-.006.011-.01.015-.012.016a.06.06 0 0 1-.023.01.122.122 0 0 1-.098-.02l-11.717-7.83a.14.14 0 0 1 0-.234L33.988 9.25a.117.117 0 0 1 .09-.02.053.053 0 0 1 .014.005l.004.006c1.232 2.449 1.925 5.16 1.925 7.949Z" stroke="#8E0732" stroke-width="2.52"/><path d="m34.48 21.39-1.4-1.4m2.1-5.6-2.238-.656" stroke="#8E0732" stroke-width="2.8" stroke-linecap="round"/></g></svg>