<svg width="43" height="43" fill="none" xmlns="http://www.w3.org/2000/svg"><g clip-path="url(#a)"><g clip-path="url(#b)"><mask id="c" style="mask-type:alpha" maskUnits="userSpaceOnUse" x="0" y="8" width="32" height="26"><path d="M.89 8.59h30.8l-9.8 12.6 9.8 12.6H.89V8.59Z" fill="#C4C4C4"/></mask><g mask="url(#c)"><path d="M30.29 12.39c-.7-1.6-2.194-2.4-3.811-2.4-3.308 0-5.989 4.602-5.989 11.2 0 6.598 2.681 11.2 5.989 11.2.879 0 3.111-.8 3.811-2.4" stroke="#8E0732" stroke-width="2.8"/></g><path d="M31.69 9.99H17.834c-5.805 0-9.868 5.054-9.868 11.2 0 6.496 4.597 11.2 9.868 11.2H31.69M7.994 19.59s-1.633-1.94-2.63-2.4c-2.256-1.043-2.208 9.19 0 8 1.077-.581 2.602-2.4 2.602-2.4" stroke="#8E0732" stroke-width="2.8" stroke-linecap="round"/><path d="M38.69 21.19c0 6.186-2.1 11.2-6.3 11.2-4.2 0-6.3-5.014-6.3-11.2 0-6.186 2.1-11.2 6.3-11.2 4.2 0 6.3 5.014 6.3 11.2Z" stroke="#8E0732" stroke-width="2.8"/></g></g><defs><clipPath id="a"><path fill="#fff" transform="translate(.89 .19)" d="M0 0h42v42H0z"/></clipPath><clipPath id="b"><path fill="#fff" transform="translate(.89 .19)" d="M0 0h42v42H0z"/></clipPath></defs></svg>