<svg width="42" height="43" fill="none" xmlns="http://www.w3.org/2000/svg"><mask id="a" style="mask-type:luminance" maskUnits="userSpaceOnUse" x="5" y="5" width="32" height="32"><path fill-rule="evenodd" clip-rule="evenodd" d="M8.4 5.79a2.8 2.8 0 0 0-2.8 2.8v8.699a6.487 6.487 0 0 1 0 12.665v3.836a2.8 2.8 0 0 0 2.8 2.8h25.2a2.8 2.8 0 0 0 2.8-2.8V8.59a2.8 2.8 0 0 0-2.8-2.8H8.4Z" fill="#fff"/></mask><g mask="url(#a)"><path d="M5.6 17.289H2.8v2.25l2.198.484.602-2.734Zm0 12.665-.602-2.734-2.198.483v2.251h2.8ZM8.4 8.59v-5.6a5.6 5.6 0 0 0-5.6 5.6h5.6Zm0 8.699V8.59H2.8v8.699h5.6Zm-3.402 2.734a3.687 3.687 0 0 1 2.886 3.599h5.6c0-4.443-3.118-8.151-7.282-9.068l-1.204 5.47Zm2.886 3.599a3.687 3.687 0 0 1-2.886 3.598l1.204 5.469c4.164-.917 7.282-4.625 7.282-9.067h-5.6ZM8.4 33.79v-3.836H2.8v3.836h5.6Zm0 0H2.8a5.6 5.6 0 0 0 5.6 5.6v-5.6Zm25.2 0H8.4v5.6h25.2v-5.6Zm0 0v5.6a5.6 5.6 0 0 0 5.6-5.6h-5.6Zm0-25.2v25.2h5.6V8.59h-5.6Zm0 0h5.6a5.6 5.6 0 0 0-5.6-5.6v5.6Zm-25.2 0h25.2v-5.6H8.4v5.6Z" fill="#8E0732"/></g><path d="M23.8 29.59a4.2 4.2 0 1 0 0-8.4 4.2 4.2 0 0 0 0 8.4Z" stroke="#8E0732" stroke-width="2.8"/><path d="M27.3 17.34a2.45 2.45 0 1 0 0-4.9 2.45 2.45 0 0 0 0 4.9Z" stroke="#8E0732" stroke-width="2.1"/><path d="M21.14 14.89a3.64 3.64 0 1 1-7.28 0 3.64 3.64 0 0 1 7.28 0Z" stroke="#8E0732" stroke-width="2.52"/></svg>