<svg width="25" height="24" fill="none" xmlns="http://www.w3.org/2000/svg"><path fill-rule="evenodd" clip-rule="evenodd" d="M12.61 12.18c.009-.01 2.122-2.123 2.122-2.83 0-.706-.354-1.06-1.06-1.767-.708-.707-.354-1.768.706-3.535 1.06-1.768 1.768-2.475 2.829-2.122 1.06.354 2.982 1.876 3.535 3.536.707 2.121-.663 4.512-2.322 6.87-.897 1.275-2.62 3.021-2.628 3.03m-3.182-3.183c-.008.009-2.122 2.122-2.828 2.122-.707 0-1.06-.354-1.768-1.061-.707-.707-1.767-.354-3.535.707-1.768 1.06-2.475 1.768-2.122 2.829.354 1.06 1.876 2.982 3.536 3.535 2.121.707 4.512-.663 6.87-2.322 1.275-.897 3.021-2.62 3.03-2.628" fill="#7A0037"/></svg>