<svg width="16" height="14" fill="none" xmlns="http://www.w3.org/2000/svg"><path d="M1.5.5C2.313.5 3 1.188 3 2a1.5 1.5 0 0 1-1.5 1.5A1.48 1.48 0 0 1 0 2 1.5 1.5 0 0 1 1.5.5Zm0 5C2.313 5.5 3 6.188 3 7a1.5 1.5 0 0 1-1.5 1.5A1.48 1.48 0 0 1 0 7a1.5 1.5 0 0 1 1.5-1.5Zm0 5c.813 0 1.5.688 1.5 1.5a1.5 1.5 0 0 1-1.5 1.5A1.48 1.48 0 0 1 0 12a1.5 1.5 0 0 1 1.5-1.5Zm14 .5c.25 0 .5.25.5.5v1c0 .281-.25.5-.5.5h-10a.494.494 0 0 1-.5-.5v-1c0-.25.219-.5.5-.5h10Zm0-10c.25 0 .5.25.5.5v1c0 .281-.25.5-.5.5h-10a.494.494 0 0 1-.5-.5v-1c0-.25.219-.5.5-.5h10Zm0 5c.25 0 .5.25.5.5v1c0 .281-.25.5-.5.5h-10a.494.494 0 0 1-.5-.5v-1c0-.25.219-.5.5-.5h10Z" fill="#fff"/></svg>