<svg width="18" height="17" fill="none" xmlns="http://www.w3.org/2000/svg"><path d="m8 3.59-.5-1-1-.5 1-.5.5-1 .5 1 1 .5-1 .5-.5 1Zm-4.5 2-.844-1.656L1 3.09l1.656-.812L3.5.59l.813 1.688L6 3.09l-1.688.844L3.5 5.59Zm11 4 .813 1.688L17 12.09l-1.688.844-.812 1.656-.844-1.656L12 12.09l1.656-.812.844-1.688Zm2.188-6.031c.406.375.406 1 0 1.406L5.344 16.31a.99.99 0 0 1-.719.281.97.97 0 0 1-.688-.281l-2.656-2.656c-.406-.375-.406-1 0-1.407L12.625.903c.188-.188.438-.313.719-.313.25 0 .5.125.687.313l2.656 2.656Zm-4.47 3.406 2.72-2.719-1.594-1.593-2.719 2.718 1.594 1.594Z" fill="#fff"/></svg>